PathFileType	4	(x/y/z)	S02_PSF_T03
DataRate	CameraRate	NumFrames	NumMarkers	Units	OrigDataRate	OrigDataStartFrame	OrigNumFrames
240	240	9	51	mm	240	247	394
Frame#	Time	Sternum			R.Acromium			L.Acromium			Top.Head			R.ASIS			L.ASIS			R.PSIS			L.PSIS			R.Great.Tro			L.Great.Tro			R.Iliac.Crest			L.Iliac.Crest			V.Sacral			R.Thigh.Upper.Post			R.Thigh.Lower.Ant			R.Thigh.Lower.Post			R.Thigh.Upper.Ant			R.Knee.Lat			R.Knee.Med			R.Shank.Upper.Post			R.Shank.Lower.Ant			R.Shank.Lower.Post			R.Shank.Upper.Ant			R.Ankle.Lat			R.Ankle.Med			R.Heel.Upper			R.Heel.Med			R.Heel.Lat			R.Toe.Lat			R.Toe.Med			R.Toe.Tip			L.Thigh.Upper.Post			L.Thigh.Lower.Ant			L.Thigh.Lower.Post			L.Thigh.Upper.Ant			L.Knee.Lat			L.Knee.Med			L.Shank.Upper.Post			L.Shank.Lower.Ant			L.Shank.Lower.Post			L.Shank.Upper.Ant			L.Ankle.Lat			L.Ankle.Med			L.Heel.Upper			L.Heel.Med			L.Heel.Lat			L.Toe.Lat			L.Toe.Med			L.Toe.Tip			Cervical.Spine			Back			
		X1	Y1	Z1	X2	Y2	Z2	X3	Y3	Z3	X4	Y4	Z4	X5	Y5	Z5	X6	Y6	Z6	X7	Y7	Z7	X8	Y8	Z8	X9	Y9	Z9	X10	Y10	Z10	X11	Y11	Z11	X12	Y12	Z12	X13	Y13	Z13	X14	Y14	Z14	X15	Y15	Z15	X16	Y16	Z16	X17	Y17	Z17	X18	Y18	Z18	X19	Y19	Z19	X20	Y20	Z20	X21	Y21	Z21	X22	Y22	Z22	X23	Y23	Z23	X24	Y24	Z24	X25	Y25	Z25	X26	Y26	Z26	X27	Y27	Z27	X28	Y28	Z28	X29	Y29	Z29	X30	Y30	Z30	X31	Y31	Z31	X32	Y32	Z32	X33	Y33	Z33	X34	Y34	Z34	X35	Y35	Z35	X36	Y36	Z36	X37	Y37	Z37	X38	Y38	Z38	X39	Y39	Z39	X40	Y40	Z40	X41	Y41	Z41	X42	Y42	Z42	X43	Y43	Z43	X44	Y44	Z44	X45	Y45	Z45	X46	Y46	Z46	X47	Y47	Z47	X48	Y48	Z48	X49	Y49	Z49	X50	Y50	Z50	X51	Y51	Z51	

247	1.025	-80.502	1062.4	312.33	-171.03	1301	458.5	-199.18	1307.5	168.23	-119.2	1586.1	300.28	-117.22	901.46	431.34	-91.817	889.97	220.79	-324.52	942.94	350.27	-320.28	944.27	277.02	-216.81	778.19	517.46	-189.45	780.99	124.6	-230.41	944.29	478.15	-211.59	936.99	141.77	-351.03	900.18	305.79	-270.2	592.58	487.56	-238.5	503	448.41	-309.38	513.77	463.49	-203	583.19	470.94	-319.02	434.11	444.48	-329.18	430.44	299.22	-464.36	268.09	418	-421.25	168.19	393.85	-482.95	197.7	404.26	-399.82	231.46	415.67	-498.77	102.31	384.01	-490.25	117.79	299.15	-567.12	92.314	328.45	-556.78	59.289	300.62	-566.06	60.562	364.16	-406.34	37.669	404.15	-374.85	32.878	297.03	-325.08	56.312	351.91	-129.33	567.3	151.73	-25.695	530.02	161.2	-90.949	488.47	178.05	-72.813	609.49	136.32	-6.6804	454.54	172.76	-9.2712	453.29	317.7	-7.1644	266.27	184.38	96.508	223.47	188.19	27.924	201.78	200.41	54.579	286.16	173.37	113.88	110.63	205.36	134.16	121.15	284.71	82.801	54.598	245.25	104.72	39.839	280.79	101.05	28.667	220.31	247.87	96.897	175.65	264.4	130.01	278.84	305.02	170.16	226.34	-259.23	1368	324.32	-342.2	1117.3	333.85
248	1.0292	-74.518	1061	312.21	-165.26	1300	457.86	-193.04	1306.3	167.62	-113.59	1585.1	299.33	-111.64	900.42	431.65	-85.451	888.87	220.98	-318.72	941.72	349.7	-314.4	943.14	276.49	-211.59	777.12	517.3	-182.93	780.33	124.53	-225.2	943.08	477.94	-205.11	935.92	141.48	-345.09	898.98	305.09	-265.14	591.67	487.35	-233.41	501.94	448.43	-304.35	512.86	463.19	-198.02	582.08	470.89	-314.08	433.17	444.21	-323.72	429.39	299.01	-461.13	268.81	418.04	-419.4	168.34	393.75	-480.66	198.62	404.34	-397.1	231.35	415.49	-497.83	103.44	384.21	-489.3	118.9	299.32	-566.37	94.063	328.7	-556.33	61.033	300.76	-565.6	62.175	364.29	-406.18	37.615	404.14	-374.76	32.818	297.03	-324.96	56.074	351.84	-122.62	566.64	151.64	-18.966	529.55	161.42	-84.192	487.84	178.02	-66.169	608.95	136.47	0.021724	453.88	173	-2.7434	452.71	317.72	-1.5458	265.6	184.36	101.74	222.08	189.01	32.926	200.84	200.53	60.391	285.06	174.02	118.19	109.49	205.96	137.92	119.54	285.56	86.376	54.108	245.49	107.7	38.939	281.09	104.42	28.117	220.5	252.19	94.63	177.24	268.17	127.21	280.69	309.59	167.04	228.66	-253.41	1367	323.6	-336.31	1116.2	333.28
249	1.0333	-68.506	1059.7	312.08	-159.49	1299	457.2	-186.88	1305.2	166.98	-107.98	1584.2	298.36	-106.01	899.46	431.93	-79.059	887.9	221.15	-312.87	940.56	349.15	-308.47	942.08	275.98	-206.3	776.08	517.14	-176.37	779.78	124.43	-219.9	941.94	477.74	-198.62	934.96	141.21	-339.11	897.84	304.44	-259.97	590.76	487.13	-228.2	500.91	448.45	-299.19	511.96	462.88	-192.91	581.01	470.85	-309.02	432.24	443.96	-318.12	428.33	298.83	-457.79	269.61	418.1	-417.47	168.55	393.69	-478.27	199.61	404.43	-394.3	231.31	415.34	-496.81	104.67	384.43	-488.25	120.11	299.53	-565.51	95.983	328.99	-555.81	62.952	300.92	-565.08	63.952	364.46	-406	37.561	404.15	-374.68	32.764	297.03	-324.84	55.835	351.77	-115.86	566.05	151.54	-12.19	529.13	161.64	-77.39	487.27	177.97	-59.472	608.47	136.6	6.7432	453.27	173.24	3.8256	452.19	317.73	3.8971	264.97	184.36	106.74	220.62	189.84	37.677	199.91	200.65	66.044	283.94	174.68	122.13	108.32	206.55	141.33	117.83	286.43	89.499	53.699	245.75	110.19	38.071	281.38	107.25	27.629	220.69	256.06	92.102	178.81	271.57	124.09	282.52	313.85	163.52	230.96	-247.58	1366.1	322.85	-330.38	1115.2	332.7
250	1.0375	-62.467	1058.6	311.94	-153.74	1298.1	456.54	-180.7	1304.1	166.32	-102.35	1583.3	297.39	-100.31	898.59	432.17	-72.641	887.06	221.32	-306.95	939.45	348.64	-302.48	941.09	275.48	-200.95	775.07	516.96	-169.77	779.33	124.29	-214.49	940.87	477.54	-192.11	934.1	140.95	-333.07	896.76	303.82	-254.69	589.88	486.88	-222.86	499.9	448.46	-293.9	511.07	462.57	-187.69	579.97	470.79	-303.83	431.32	443.71	-312.39	427.26	298.66	-454.34	270.47	418.17	-415.48	168.84	393.66	-475.79	200.7	404.54	-391.43	231.34	415.2	-495.7	105.99	384.69	-487.09	121.41	299.78	-564.54	98.08	329.31	-555.21	65.053	301.11	-564.47	65.9	364.64	-405.81	37.511	404.17	-374.61	32.716	297.04	-324.72	55.595	351.7	-109.06	565.53	151.44	-5.3772	528.78	161.87	-70.554	486.77	177.93	-52.728	608.05	136.73	13.474	452.7	173.49	10.419	451.72	317.72	9.1858	264.38	184.36	111.54	219.13	190.69	42.211	199	200.78	71.554	282.81	175.36	125.74	107.12	207.14	144.44	116.07	287.29	92.224	53.393	246.01	112.25	37.259	281.65	109.62	27.226	220.86	259.55	89.355	180.33	274.67	120.71	284.31	317.86	159.63	233.21	-241.74	1365.2	322.07	-324.42	1114.2	332.11
251	1.0417	-56.399	1057.5	311.8	-147.99	1297.3	455.88	-174.51	1303	165.65	-96.719	1582.5	296.4	-94.552	897.81	432.38	-66.201	886.35	221.48	-300.97	938.42	348.16	-296.43	940.18	275	-195.51	774.09	516.76	-163.12	778.98	124.12	-208.99	939.87	477.34	-185.57	933.35	140.72	-326.98	895.75	303.23	-249.29	589.01	486.61	-217.39	498.92	448.47	-288.47	510.19	462.26	-182.33	578.97	470.74	-298.49	430.41	443.49	-306.52	426.19	298.5	-450.78	271.4	418.24	-413.42	169.21	393.66	-473.21	201.87	404.65	-388.48	231.44	415.1	-494.49	107.42	384.98	-485.8	122.81	300.07	-563.45	100.36	329.66	-554.52	67.345	301.32	-563.77	68.03	364.86	-405.59	37.465	404.2	-374.54	32.676	297.06	-324.61	55.353	351.62	-102.22	565.08	151.32	1.462	528.47	162.11	-63.699	486.34	177.87	-45.943	607.68	136.84	20.206	452.18	173.75	17.018	451.32	317.7	14.344	263.86	184.38	116.17	217.61	191.53	46.565	198.13	200.91	76.939	281.68	176.05	129.06	105.94	207.72	147.31	114.28	288.14	94.607	53.206	246.28	113.95	36.526	281.91	111.58	26.926	221.02	262.67	86.431	181.78	277.49	117.1	286.03	321.64	155.44	235.39	-235.9	1364.3	321.26	-318.41	1113.3	331.5
252	1.0458	-50.303	1056.6	311.65	-142.25	1296.6	455.21	-168.31	1302.1	164.95	-91.077	1581.8	295.39	-88.729	897.1	432.54	-59.741	885.77	221.62	-294.92	937.46	347.71	-290.32	939.34	274.54	-190	773.15	516.54	-156.42	778.72	123.91	-203.37	938.95	477.15	-179.01	932.71	140.5	-320.84	894.81	302.69	-243.78	588.16	486.32	-211.77	497.98	448.47	-282.9	509.32	461.95	-176.84	578.02	470.67	-293.01	429.51	443.28	-300.51	425.13	298.37	-447.09	272.41	418.31	-411.27	169.66	393.71	-470.51	203.14	404.78	-385.44	231.6	415.03	-493.18	108.94	385.3	-484.36	124.31	300.41	-562.21	102.83	330.05	-553.72	69.834	301.56	-562.97	70.348	365.09	-405.36	37.427	404.24	-374.48	32.644	297.09	-324.5	55.111	351.55	-95.346	564.7	151.19	8.3164	528.22	162.35	-56.837	485.97	177.82	-39.123	607.37	136.96	26.928	451.7	174.02	23.605	450.97	317.67	19.394	263.39	184.42	120.65	216.1	192.38	50.774	197.29	201.05	82.218	280.58	176.75	132.15	104.78	208.29	149.97	112.5	288.97	96.7	53.148	246.55	115.34	35.886	282.16	113.19	26.74	221.17	265.48	83.373	183.16	280.1	113.32	287.67	325.23	150.99	237.47	-230.06	1363.6	320.43	-312.37	1112.4	330.88
253	1.05	-44.178	1055.8	311.5	-136.53	1296	454.55	-162.1	1301.1	164.24	-85.424	1581.1	294.38	-82.842	896.48	432.65	-53.266	885.31	221.75	-288.81	936.57	347.3	-284.15	938.57	274.1	-184.41	772.24	516.3	-149.67	778.55	123.67	-197.64	938.12	476.96	-172.44	932.18	140.29	-314.64	893.94	302.18	-238.13	587.34	486	-206	497.06	448.46	-277.18	508.45	461.63	-171.2	577.11	470.6	-287.37	428.62	443.1	-294.37	424.07	298.26	-443.27	273.49	418.39	-409.04	170.2	393.81	-467.7	204.5	404.91	-382.3	231.85	415	-491.74	110.58	385.65	-482.77	125.92	300.8	-560.81	105.49	330.47	-552.79	72.529	301.82	-562.05	72.864	365.35	-405.1	37.4	404.3	-374.42	32.624	297.13	-324.39	54.866	351.47	-88.454	564.4	151.06	15.175	528.02	162.61	-49.981	485.66	177.77	-32.276	607.12	137.07	33.633	451.28	174.29	30.161	450.68	317.65	24.361	262.99	184.47	125.03	214.62	193.22	54.873	196.52	201.19	87.412	279.52	177.45	135.04	103.67	208.84	152.48	110.75	289.78	98.554	53.224	246.83	116.49	35.352	282.41	114.51	26.674	221.32	268.01	80.221	184.45	282.52	109.42	289.21	328.65	146.33	239.43	-224.2	1362.9	319.56	-306.29	1111.6	330.25
254	1.0542	-38.025	1055.1	311.33	-130.81	1295.5	453.9	-155.87	1300.3	163.51	-79.76	1580.6	293.36	-76.889	895.93	432.72	-46.777	884.97	221.85	-282.63	935.76	346.92	-277.92	937.89	273.67	-178.72	771.37	516.03	-142.86	778.46	123.39	-191.8	937.36	476.77	-165.85	931.75	140.08	-308.38	893.15	301.7	-232.35	586.53	485.67	-200.07	496.18	448.45	-271.31	507.61	461.32	-165.41	576.26	470.51	-281.58	427.76	442.96	-288.09	423.02	298.18	-439.31	274.64	418.47	-406.7	170.82	393.96	-464.76	205.97	405.06	-379.05	232.16	415.01	-490.18	112.32	386.03	-481	127.63	301.24	-559.24	108.35	330.92	-551.73	75.434	302.09	-561	75.585	365.64	-404.81	37.387	404.37	-374.36	32.62	297.18	-324.29	54.619	351.38	-81.551	564.18	150.92	22.028	527.86	162.89	-43.143	485.42	177.72	-25.409	606.93	137.18	40.315	450.92	174.57	36.669	450.45	317.62	29.265	262.68	184.54	129.31	213.19	194.04	58.893	195.83	201.35	92.538	278.52	178.15	137.77	102.62	209.39	154.86	109.05	290.57	100.21	53.432	247.12	117.43	34.931	282.64	115.59	26.73	221.46	270.29	77.015	185.63	284.79	105.43	290.64	331.92	141.53	241.25	-218.34	1362.2	318.67	-300.18	1110.9	329.6
255	1.0583	-31.846	1054.6	311.15	-125.11	1295	453.25	-149.64	1299.5	162.76	-74.085	1580.1	292.33	-70.874	895.44	432.73	-40.279	884.74	221.93	-276.39	935.02	346.57	-271.63	937.28	273.27	-172.95	770.54	515.75	-135.99	778.46	123.07	-185.84	936.68	476.59	-159.25	931.43	139.88	-302.07	892.44	301.26	-226.43	585.75	485.31	-193.98	495.34	448.43	-265.27	506.77	461.01	-159.47	575.45	470.41	-275.6	426.91	442.84	-281.66	421.98	298.12	-435.2	275.88	418.56	-404.26	171.54	394.17	-461.68	207.53	405.23	-375.68	232.55	415.06	-488.47	114.17	386.45	-479.04	129.44	301.72	-557.48	111.42	331.4	-550.51	78.558	302.39	-559.81	78.517	365.94	-404.5	37.394	404.46	-374.31	32.635	297.25	-324.18	54.369	351.3	-74.645	564.04	150.78	28.864	527.76	163.17	-36.334	485.25	177.66	-18.529	606.81	137.3	46.966	450.62	174.86	43.112	450.27	317.59	34.126	262.45	184.62	133.53	211.83	194.85	62.858	195.22	201.5	97.612	277.6	178.84	140.36	101.63	209.91	157.15	107.43	291.31	101.71	53.764	247.4	118.22	34.624	282.87	116.48	26.904	221.59	272.36	73.791	186.72	286.93	101.42	291.96	335.06	136.62	242.93	-212.48	1361.6	317.76	-294.03	1110.2	328.95
